<svg xmlns="http://www.w3.org/2000/svg" width="1200" height="900" viewBox="0 0 1200 900">
  <defs>
    <linearGradient id="map" x1="0" x2="1" y1="0" y2="1">
      <stop offset="0%" stop-color="#f2e7d6" />
      <stop offset="100%" stop-color="#d6c8b4" />
    </linearGradient>
  </defs>
  <rect width="1200" height="900" fill="url(#map)" />
  <rect x="60" y="120" width="1080" height="660" rx="40" fill="#e2d5c3" />
  <path d="M120 320 C 260 200, 460 210, 600 320 C 760 450, 920 420, 1080 300" stroke="#9bb3c4" stroke-width="18" fill="none" />
  <path d="M220 620 C 380 560, 520 580, 720 640 C 860 680, 980 650, 1080 580" stroke="#7c8e6b" stroke-width="16" fill="none" />
  <circle cx="420" cy="420" r="14" fill="#6c6a3a" />
  <circle cx="520" cy="320" r="12" fill="#d4a25a" />
  <circle cx="720" cy="470" r="12" fill="#5b8bb5" />
  <circle cx="880" cy="360" r="12" fill="#bb7a5f" />
  <text x="100" y="150" fill="#4d4c2a" font-size="38" font-family="Georgia, serif">Hossegor</text>
  <text x="450" y="450" fill="#4d4c2a" font-size="28" font-family="Georgia, serif">Villa</text>
  <text x="520" y="300" fill="#6b5d45" font-size="22" font-family="Georgia, serif">Plages</text>
  <text x="700" y="500" fill="#6b5d45" font-size="22" font-family="Georgia, serif">Golf</text>
  <text x="860" y="340" fill="#6b5d45" font-size="22" font-family="Georgia, serif">Restaurants</text>
</svg>
